PathFileType	4	(X/Y/Z)	webcam_static.trc
DataRate	CameraRate	NumFrames	NumMarkers	Units	OrigDataRate	OrigDataStartFrame	OrigNumFrames
29.300983568096093	29.300983568096093	19	12	mm	29.300983568096093	486	1294
Frame#	Time	JOINT_RIGHT_SHOULDER			JOINT_LEFT_SHOULDER			JOINT_RIGHT_ELBOW			JOINT_LEFT_ELBOW			JOINT_LEFT_WRIST			JOINT_RIGHT_WRIST			JOINT_RIGHT_PINKY			JOINT_LEFT_PINKY			JOINT_RIGHT_INDEX			JOINT_LEFT_INDEX			JOINT_RIGHT_HIP			JOINT_LEFT_HIP
		X1	Y1	Z1	X2	Y2	Z2	X3	Y3	Z3	X4	Y4	Z4	X5	Y5	Z5	X6	Y6	Z6	X7	Y7	Z7	X8	Y8	Z8	X9	Y9	Z9	X10	Y10	Z10	X11	Y11	Z11	X12	Y12	Z12

486	1753709324.976667	178.857461	423.015952	166.237161	110.461481	422.208369	-164.731845	158.040762	158.086032	225.698635	81.568666	182.671085	-193.108022	196.435690	-10.511415	-278.039157	250.909925	-45.384962	319.360644	271.792412	-95.689453	344.581932	220.620707	-74.546546	-308.491439	309.000343	-97.853236	332.129151	257.611781	-76.904528	-291.922331	16.659437	1.442723	119.647898	-17.932810	-0.694531	-118.857816
487	1753709325.003611	178.328082	422.996014	166.369975	110.181034	422.184587	-164.713442	157.238364	158.123091	225.776821	81.490658	182.665020	-193.222553	196.521536	-10.585009	-278.052926	250.405371	-45.335419	319.325596	271.373391	-95.679983	344.540477	220.809758	-74.758366	-308.504045	308.614671	-97.836927	332.097411	257.819325	-77.165999	-291.912764	16.634537	1.355534	119.655266	-17.907465	-0.610566	-118.864834
488	1753709325.042071	177.459911	423.014551	166.382283	109.701186	422.171265	-164.681941	156.828627	158.209085	225.804284	81.501156	182.645321	-193.192065	196.932510	-10.443841	-278.021514	250.139385	-45.259900	319.293976	271.126837	-95.607594	344.517231	221.593291	-74.530162	-308.499128	308.315992	-97.771496	332.041860	258.504450	-76.845549	-291.868865	16.589403	1.303789	119.647980	-17.863540	-0.562379	-118.857414
489	1753709325.074037	177.463785	422.907382	166.373849	109.690912	422.110468	-164.654866	156.795681	158.129856	225.830257	81.499778	182.515934	-193.103537	196.897835	-10.501525	-277.944982	249.886274	-45.340996	319.358379	270.711303	-95.652372	344.583631	221.572503	-74.552216	-308.488786	307.820112	-97.827017	332.125515	258.457631	-76.867446	-291.849315	16.581105	1.286456	119.636782	-17.855760	-0.545166	-118.846968
490	1753709325.109801	177.355364	422.874033	166.365221	109.449342	422.104061	-164.678738	156.694710	158.122346	225.842968	81.459828	182.555974	-193.118125	197.085530	-10.343457	-277.931184	249.799103	-45.326304	319.466025	270.599812	-95.638037	344.819665	221.815318	-74.448138	-308.478683	307.729602	-97.802475	332.457632	258.720756	-76.733693	-291.828454	16.582783	1.225937	119.631082	-17.857119	-0.486167	-118.841082
491	1753709325.144258	177.271798	422.909200	166.191876	109.410159	422.107100	-164.782092	156.674072	158.090577	225.801378	81.508480	182.552129	-193.123192	197.570086	-10.083956	-277.936816	249.791846	-45.334004	319.578767	270.587862	-95.636167	345.038444	222.380146	-74.052170	-308.542818	307.721645	-97.797379	332.828343	259.247333	-76.169521	-291.931868	16.552648	1.209036	119.622976	-17.825963	-0.469374	-118.832402
492	1753709325.178983	176.494032	422.950298	166.097581	108.877137	422.108710	-164.772317	156.121150	158.090830	225.614846	81.443772	182.555288	-193.109989	197.508991	-9.959103	-277.861714	249.107286	-45.284811	319.688976	269.801557	-95.526956	345.271796	222.342432	-73.836535	-308.525711	306.633294	-97.744413	333.097339	259.164006	-75.990915	-291.900724	16.551116	1.202874	119.610608	-17.826742	-0.463488	-118.822448
493	1753709325.209129	175.898403	422.965705	166.045383	108.195871	422.088474	-164.798796	156.112686	158.094943	225.627705	81.429638	182.534903	-193.192422	197.884828	-9.696786	-277.907223	249.172196	-45.232669	320.103943	269.877225	-95.449835	345.986694	222.830966	-73.485970	-308.657110	306.674272	-97.705722	333.840877	259.634733	-75.612977	-292.033523	16.552066	1.184891	119.603246	-17.828735	-0.446701	-118.814811
494	1753709325.245219	173.165306	422.974557	165.867716	105.913319	422.064364	-165.014416	154.083177	158.103362	225.503027	80.304123	182.460412	-193.633258	196.746483	-9.718806	-278.416842	246.578351	-45.215409	320.110768	266.774148	-95.424503	346.074343	221.566841	-73.493071	-309.330255	303.095996	-97.699068	333.929747	258.292973	-75.627282	-292.596996	16.580753	1.172885	119.598009	-17.858271	-0.435207	-118.809618
495	1753709325.278640	171.476007	422.986180	165.852249	104.056098	422.084600	-165.080711	151.345581	158.138469	225.504622	78.000478	182.459965	-193.753749	193.897024	-9.810085	-278.381854	242.777973	-45.177069	320.246100	262.033552	-95.319368	346.343219	218.344390	-73.612399	-309.253544	298.702419	-97.666398	334.311575	254.991293	-75.778998	-292.415410	16.589928	1.145081	119.593836	-17.866665	-0.409079	-118.805088
496	1753709325.314896	171.215340	423.017651	165.843338	103.662305	422.053009	-165.097669	150.918543	158.219755	225.461945	77.220067	182.374924	-193.836883	192.369506	-10.114556	-278.599709	242.255390	-45.031741	320.288122	261.466712	-95.031083	346.448779	216.530889	-73.874317	-309.597939	298.110902	-97.500093	334.459424	253.215045	-76.130792	-292.796403	16.591072	1.137399	119.588681	-17.868035	-0.402456	-118.799955
497	1753709325.349420	171.604753	423.099726	165.810972	104.188904	422.048420	-165.133297	151.064783	158.243135	225.367978	77.418461	182.372391	-193.902135	192.488775	-10.190090	-278.626353	242.359996	-44.889651	320.272535	261.538506	-94.804108	346.453279	216.587216	-73.959559	-309.604496	298.178941	-97.288191	334.507912	253.271312	-76.233499	-292.856604	16.546132	1.143441	119.572945	-17.822653	-0.408085	-118.784375
498	1753709325.383119	172.295138	423.032939	165.836155	104.208335	421.853125	-165.112928	151.385665	158.251122	225.348592	77.135436	182.122871	-193.919584	191.356495	-10.928550	-278.742880	242.530450	-44.874799	320.323557	261.698425	-94.781525	346.550405	215.124086	-74.712917	-309.831977	298.407763	-97.276449	334.611565	251.908958	-77.093065	-293.131977	16.582372	1.126131	119.564019	-17.858934	-0.391335	-118.775219
499	1753709325.420286	173.472211	423.068553	165.913507	104.668878	421.827972	-165.030792	151.548624	158.316761	225.358576	77.020220	182.114065	-193.909317	190.680489	-11.255234	-278.733075	242.599562	-44.817977	320.347369	261.806071	-94.619207	346.590310	214.204654	-75.060144	-309.827745	298.522860	-97.183034	334.675014	251.026601	-77.529363	-293.137014	16.559415	1.119328	119.555108	-17.835531	-0.384597	-118.766010
500	1753709325.449000	173.975661	423.130274	165.974185	105.103277	421.896040	-164.973512	151.735827	158.420965	225.370437	77.080794	182.391107	-193.916544	190.817595	-11.250588	-278.715760	242.663428	-44.424638	320.351541	261.877775	-94.062984	346.649587	214.263797	-75.078256	-309.721142	298.592925	-96.658774	334.850758	251.103878	-77.578545	-293.107271	16.498987	1.113963	119.524173	-17.771330	-0.379129	-118.733741
501	1753709325.484820	173.893765	423.425019	165.926367	104.933187	422.087848	-164.978892	151.306972	158.692792	225.290209	76.709345	182.716072	-193.753362	190.860182	-10.854613	-278.064132	242.195517	-44.258550	320.175588	261.391282	-93.922548	346.484154	214.314237	-74.775182	-308.746517	298.249245	-96.528918	334.751725	251.156449	-77.193350	-292.254299	16.492529	1.108930	119.504653	-17.764254	-0.374117	-118.713565
502	1753709325.518025	172.463939	424.143225	165.751815	104.021050	422.519058	-165.124759	150.116712	159.321547	225.043073	75.982630	183.472231	-193.815023	190.933570	-10.016859	-278.087586	241.607517	-43.725543	319.923490	260.809958	-93.455166	346.351385	214.430735	-74.100807	-308.745176	297.686398	-96.145101	334.699184	251.348525	-76.492675	-292.286724	16.481224	1.106637	119.489118	-17.751478	-0.371930	-118.697464
503	1753709325.554326	173.021615	424.236923	165.747181	104.712650	422.534347	-165.104926	150.583848	159.592018	225.032911	76.470241	183.629677	-193.709567	192.123473	-9.895549	-278.086990	242.488846	-43.284800	319.903225	261.885345	-93.002968	346.320868	215.675771	-74.022964	-308.761746	298.782468	-95.692627	334.694386	252.729416	-76.448612	-292.405695	16.418844	1.123213	119.449727	-17.688351	-0.387808	-118.658960
504	1753709325.588324	172.530308	424.790710	165.684521	104.605116	422.731340	-165.108263	149.782389	160.144314	224.986419	76.324321	184.043124	-193.602949	192.145333	-9.663479	-277.822554	241.747960	-43.177243	319.889486	261.085093	-92.952341	346.314222	215.734944	-73.849246	-308.441699	297.963440	-95.673040	334.697455	252.781570	-76.329447	-292.168796	16.337123	1.157286	119.416513	-17.606556	-0.421909	-118.626773
